<svg width="27" height="28" viewBox="0 0 27 28" fill="none" xmlns="http://www.w3.org/2000/svg">
<path opacity="0.24" d="M26.8333 14C26.8333 18.0178 25.0562 21.6205 22.2451 24.0651C19.904 26.1008 16.8459 27.3333 13.5 27.3333C10.154 27.3333 7.09588 26.1008 4.75485 24.0651C1.94376 21.6205 0.166626 18.0178 0.166626 14C0.166626 6.63616 6.13616 0.666626 13.5 0.666626C20.8638 0.666626 26.8333 6.63616 26.8333 14Z" fill="#001F3D" fill-opacity="0.6"/>
<circle opacity="0.8" cx="13.5" cy="11.3334" r="4" fill="#001F3D" fill-opacity="0.6"/>
<g opacity="0.8">
<path d="M22.2451 24.0651C20.9205 20.5224 17.5048 18 13.5 18C9.49516 18 6.07946 20.5224 4.75488 24.0651C7.09591 26.1008 10.154 27.3333 13.5 27.3333C16.846 27.3333 19.9041 26.1008 22.2451 24.0651Z" fill="#001F3D" fill-opacity="0.6"/>
</g>
</svg>
