<svg width="32" height="32" viewBox="0 0 32 32" fill="none" xmlns="http://www.w3.org/2000/svg">
<rect width="32" height="32" rx="16" fill="#2873BD" fill-opacity="0.07"/>
<path fill-rule="evenodd" clip-rule="evenodd" d="M20.1477 12.6478C20.3673 12.4281 20.3673 12.072 20.1477 11.8523C19.928 11.6326 19.5718 11.6326 19.3522 11.8523L16 15.2045L12.6477 11.8523C12.4281 11.6326 12.0719 11.6326 11.8523 11.8523C11.6326 12.072 11.6326 12.4281 11.8523 12.6478L15.2045 16L11.8523 19.3522C11.6326 19.5719 11.6326 19.9281 11.8523 20.1477C12.0719 20.3674 12.4281 20.3674 12.6477 20.1477L16 16.7955L19.3522 20.1477C19.5718 20.3674 19.928 20.3674 20.1477 20.1477C20.3673 19.9281 20.3673 19.5719 20.1477 19.3522L16.7954 16L20.1477 12.6478Z" fill="#001F3D" fill-opacity="0.6"/>
</svg>
