<svg width="12" height="12" viewBox="0 0 12 12" fill="none" xmlns="http://www.w3.org/2000/svg">
<path opacity="0.4" d="M3.55501 2.98002L8.06501 1.47502C10.09 0.800017 11.19 1.90502 10.52 3.93002L9.01501 8.44002C8.00501 11.475 6.34501 11.475 5.33501 8.44002L4.89001 7.10002L3.55001 6.65502C0.520013 5.65002 0.520013 3.99502 3.55501 2.98002Z" fill="white"/>
<path d="M6.06 5.81503L7.965 3.90503L6.06 5.81503Z" fill="white"/>
<path d="M6.06003 6.19C5.96503 6.19 5.87003 6.155 5.79503 6.08C5.65003 5.935 5.65003 5.695 5.79503 5.55L7.69503 3.64C7.84003 3.495 8.08003 3.495 8.22503 3.64C8.37003 3.785 8.37003 4.025 8.22503 4.17L6.32503 6.08C6.25003 6.15 6.15503 6.19 6.06003 6.19Z" fill="white"/>
</svg>
