<svg width="33" height="32" viewBox="0 0 33 32" fill="none" xmlns="http://www.w3.org/2000/svg">
<path opacity="0.3" d="M16.5 0C7.66344 0 0.5 7.16344 0.5 16C0.5 24.8366 7.66344 32 16.5 32C25.3366 32 32.5 24.8366 32.5 16C32.5 7.16344 25.3366 0 16.5 0Z" fill="#718393"/>
<path d="M14.1318 13.6325L20.7095 11.7907L18.8677 18.3685L12.29 20.2102L14.1318 13.6325Z" fill="#718393"/>
<path fill-rule="evenodd" clip-rule="evenodd" d="M19.9427 18.6695C19.8376 19.0449 19.5442 19.3383 19.1687 19.4434L12.591 21.2852C12.2026 21.3939 11.7858 21.2847 11.5007 20.9996C11.2155 20.7144 11.1063 20.2976 11.2151 19.9093L13.0568 13.3315C13.162 12.9561 13.4554 12.6627 13.8308 12.5576L20.4085 10.7158C20.7969 10.6071 21.2137 10.7163 21.4988 11.0014C21.784 11.2866 21.8932 11.7034 21.7845 12.0917L19.9427 18.6695ZM19.0995 13.4008L15.0374 14.5381L13.9 18.6002L17.9621 17.4628L19.0995 13.4008Z" fill="#718393"/>
</svg>
