<svg width="33" height="32" viewBox="0 0 33 32" fill="none" xmlns="http://www.w3.org/2000/svg">
<path opacity="0.24" d="M29.8334 16C29.8334 20.0178 28.0562 23.6205 25.2451 26.0651C22.9041 28.1008 19.846 29.3333 16.5 29.3333C13.154 29.3333 10.0959 28.1008 7.75491 26.0651C4.94382 23.6205 3.16669 20.0178 3.16669 16C3.16669 8.63616 9.13622 2.66663 16.5 2.66663C23.8638 2.66663 29.8334 8.63616 29.8334 16Z" fill="#001F3D" fill-opacity="0.6"/>
<circle opacity="0.8" cx="16.5001" cy="13.3334" r="4" fill="#001F3D" fill-opacity="0.6"/>
<g opacity="0.8">
<path d="M25.2452 26.0651C23.9206 22.5224 20.5049 20 16.5001 20C12.4952 20 9.07952 22.5224 7.75494 26.0651C10.096 28.1008 13.1541 29.3333 16.5001 29.3333C19.846 29.3333 22.9041 28.1008 25.2452 26.0651Z" fill="#001F3D" fill-opacity="0.6"/>
</g>
</svg>
