<svg width="25" height="24" viewBox="0 0 25 24" fill="none" xmlns="http://www.w3.org/2000/svg">
<g opacity="0.8">
<path fill-rule="evenodd" clip-rule="evenodd" d="M8.71259 8.16979C8.02288 8.3067 7.33791 8.37601 6.67661 8.37601C5.9516 8.37558 5.2649 8.29206 4.63546 8.12673C3.63921 7.86454 2.25807 7.18775 1.57955 6.32066C0.460604 4.89086 0.210466 3.60573 0.836458 2.50142C1.48828 1.35147 2.87072 0.691895 4.62944 0.691895C5.75398 0.691895 6.97411 0.968295 7.97768 1.45049C9.04496 1.96325 9.66794 2.52811 10.3155 3.1597C10.8394 3.67074 11.214 4.137 11.6079 4.76859C11.8288 5.12249 11.9721 5.41051 12.1241 5.71619C12.1939 5.85654 12.2662 6.00206 12.3489 6.15921C12.4806 6.40978 12.4337 6.71674 12.2335 6.91651C12.1271 7.02285 11.9054 7.24329 10.5066 7.68458C9.7816 7.91319 9.05529 8.10176 8.71259 8.16979ZM16.1095 7.90028C18.7035 7.98639 20.9987 9.56773 21.9975 11.9791C23.0183 14.4435 22.4323 17.1795 20.7248 19.0166C18.9833 18.3376 17.2991 16.4429 16.3859 14.0651C15.5486 11.8844 15.4534 9.57462 16.1095 7.90028ZM18.4198 20.6169C18.8624 20.4335 19.2744 20.207 19.6532 19.9444C17.7989 18.9843 16.1345 17.0047 15.1826 14.5274C14.3095 12.2529 14.1523 9.90182 14.7133 8.00232C14.2522 8.08584 13.7997 8.21887 13.3597 8.40142C12.8974 8.59257 12.4044 8.88275 11.8981 9.25602H11.8977C11.2748 9.71496 10.6311 10.3001 9.99952 10.9812C9.9668 12.6271 10.2884 14.3716 10.9454 16.0829C11.7143 18.0836 12.8776 19.8341 14.2479 21.0913L14.2479 21.0913C14.5329 21.1034 14.8119 21.1103 15.0797 21.1103C16.5056 21.1103 17.6293 20.9445 18.4198 20.6169Z" fill="#001F3D" fill-opacity="0.6"/>
<path opacity="0.7" fill-rule="evenodd" clip-rule="evenodd" d="M14.7755 6.32622C14.741 6.33182 14.7066 6.3344 14.6726 6.3344C14.4573 6.3344 14.2532 6.22634 14.1331 6.0425C13.6892 5.36269 13.477 4.2967 13.5803 3.25955C13.7035 2.02263 14.2408 1.03457 15.0932 0.477028C15.5776 0.160588 16.0481 0 16.4933 0C17.1533 0 17.713 0.355188 18.0281 0.973861C18.5043 1.90854 18.3291 3.25869 17.6028 4.25752C17.251 4.74101 16.8803 5.11385 16.4007 5.46731C16.3904 5.47506 15.321 6.23796 14.7755 6.32622ZM8.45266 12.8841C8.55685 12.739 8.6619 12.5965 8.76781 12.4562C8.89352 13.8059 9.22116 15.1875 9.7421 16.5454C10.3767 18.1973 11.2649 19.6986 12.3171 20.9359C11.3101 20.8179 10.2846 20.6444 9.33267 20.4257C8.46256 20.2255 7.71947 20.0012 7.18475 19.7774C6.62678 19.5431 5.98572 19.1957 5.98572 18.577C5.98572 17.1696 6.90791 15.0415 8.45266 12.8841Z" fill="#001F3D" fill-opacity="0.6"/>
</g>
</svg>
